<svg width="24" height="24" viewBox="0 0 24 24" fill="none" xmlns="http://www.w3.org/2000/svg">
<g clip-path="url(#clip0_13_37)">
<path fill-rule="evenodd" clip-rule="evenodd" d="M20.5031 3.48759C18.267 1.24757 15.223 -0.0083771 12.0504 4.20563e-05C5.46339 4.20563e-05 0.102563 5.33457 0.100272 11.8917C0.0974582 13.9786 0.647687 16.0292 1.69545 17.837L0 24L6.3349 22.3463C8.08683 23.2964 10.0502 23.7941 12.0453 23.7941H12.0504C18.6363 23.7941 23.9976 18.459 23.9999 11.902C24.0102 8.74496 22.751 5.71509 20.5031 3.48759ZM17.4983 14.3796C17.1998 14.2307 15.7318 13.5123 15.4579 13.4102C15.184 13.3082 14.9852 13.2614 14.7864 13.559C14.5876 13.8567 14.0152 14.5256 13.841 14.7241C13.6668 14.9224 13.4926 14.9469 13.194 14.7982C12.8955 14.6493 11.9335 14.3357 10.7927 13.3236C9.90516 12.5355 9.30295 11.5627 9.13105 11.265C8.95916 10.9673 9.11272 10.8088 9.26227 10.6582C9.39634 10.5254 9.56079 10.3115 9.70976 10.1377C9.85874 9.96372 9.90917 9.84055 10.0082 9.64211C10.1074 9.44367 10.0581 9.27032 9.98362 9.12148C9.90917 8.97265 9.31154 7.51001 9.06287 6.91526C8.8205 6.3359 8.57469 6.41402 8.39134 6.40204C8.21944 6.39349 8.01775 6.39178 7.81835 6.39178C7.51238 6.39974 7.22366 6.53452 7.02191 6.76358C6.74859 7.06123 5.97736 7.77972 5.97736 9.24238C5.97736 10.705 7.04711 12.118 7.19609 12.3165C7.34507 12.5149 9.3018 15.5161 12.2957 16.8037C12.8517 17.0423 13.4199 17.2517 13.998 17.4309C14.713 17.659 15.364 17.6254 15.8785 17.549C16.4515 17.4634 17.645 16.8299 17.8942 16.1359C18.1435 15.442 18.143 14.8466 18.0662 14.7229C17.9894 14.5991 17.7968 14.5307 17.4983 14.3819V14.3796Z" fill="#465C9B"/>
</g>
<defs>
<clipPath id="clip0_13_37">
<rect width="24" height="24" fill="white"/>
</clipPath>
</defs>
</svg>
